<svg width="70" height="70" viewBox="0 0 70 70" fill="none" xmlns="http://www.w3.org/2000/svg">
<g clip-path="url(#clip0)">
<path d="M32.6496 32.7351H34.9817V43.2296H32.6496V32.7351Z" fill="#2196F3"/>
<path d="M41.978 37.3993H44.3101V43.2296H41.978V37.3993Z" fill="#2196F3"/>
<path d="M23.3211 40.8975H25.6532V43.2296H23.3211V40.8975Z" fill="#2196F3"/>
<path d="M16.3248 39.7314H18.6569V43.2295H16.3248V39.7314Z" fill="#2196F3"/>
<path d="M3.49817 60.8865H59.4689C61.4007 60.8865 62.967 59.3202 62.967 57.3883V52.7241C62.967 50.7923 61.4007 49.2259 59.4689 49.2259H58.3028V20.1469L64.9262 13.8725C66.4635 14.6303 68.3242 14.1702 69.3302 12.7816C70.3369 11.3935 70.1957 9.48211 68.9966 8.25684C67.7975 7.03157 65.8901 6.8488 64.4798 7.82412C63.0701 8.80001 62.569 10.6499 63.2933 12.2037L58.3028 16.9345V14.2443C58.3028 12.3124 56.7365 10.7461 54.8046 10.7461H8.16239C6.23054 10.7461 4.66422 12.3124 4.66422 14.2443V49.2259H3.49817C1.56632 49.2259 0 50.7923 0 52.7241V57.3883C0 59.3202 1.56632 60.8865 3.49817 60.8865ZM66.4652 9.58004C67.1091 9.58004 67.6312 10.1021 67.6312 10.7461C67.6312 11.39 67.1091 11.9121 66.4652 11.9121C65.8212 11.9121 65.2991 11.39 65.2991 10.7461C65.2991 10.1021 65.8212 9.58004 66.4652 9.58004ZM6.99634 14.2443C6.99634 13.6003 7.51844 13.0782 8.16239 13.0782H54.8046C55.4486 13.0782 55.9707 13.6003 55.9707 14.2443V19.1414L53.6386 21.3573V16.5764C53.6386 15.9324 53.1165 15.4103 52.4725 15.4103H10.4945C9.85055 15.4103 9.32845 15.9324 9.32845 16.5764V45.7278C9.32845 46.3717 9.85055 46.8938 10.4945 46.8938H52.4725C53.1165 46.8938 53.6386 46.3717 53.6386 45.7278V24.5651L55.9707 22.3554V49.2259H6.99634V14.2443ZM17.4908 29.403C15.9131 29.3984 14.5279 30.4495 14.1083 31.9703C13.6886 33.491 14.3383 35.104 15.6951 35.9091C17.0513 36.7142 18.7793 36.5121 19.9129 35.4149L23.9662 37.4487C24.4371 37.6844 25.0081 37.5739 25.3583 37.1805L33.9745 27.4871L42.4443 33.8338C42.8987 34.1743 43.5329 34.1378 43.9452 33.7478L51.3065 26.7748V44.5617H11.6606V17.7424H51.3065V23.5619L43.0564 31.3747L34.5154 24.9716C34.0303 24.6084 33.3476 24.6767 32.9445 25.1294L24.2099 34.9571L20.9446 33.3242C20.9685 33.1841 20.9833 33.0429 20.989 32.9012C20.989 30.9693 19.4227 29.403 17.4908 29.403ZM18.6569 32.9012C18.6569 33.5451 18.1348 34.0672 17.4908 34.0672C16.8469 34.0672 16.3248 33.5451 16.3248 32.9012C16.3248 32.2572 16.8469 31.7351 17.4908 31.7351C18.1348 31.7351 18.6569 32.2572 18.6569 32.9012ZM25.6532 51.5581H37.3138V52.7241C37.3138 53.3681 36.7917 53.8902 36.1477 53.8902H26.8193C26.1753 53.8902 25.6532 53.3681 25.6532 52.7241V51.5581ZM2.33211 52.7241C2.33211 52.0802 2.85422 51.5581 3.49817 51.5581H23.3211V52.7241C23.3211 54.656 24.8874 56.2223 26.8193 56.2223H36.1477C38.0796 56.2223 39.6459 54.656 39.6459 52.7241V51.5581H59.4689C60.1128 51.5581 60.6349 52.0802 60.6349 52.7241V57.3883C60.6349 58.0323 60.1128 58.5544 59.4689 58.5544H3.49817C2.85422 58.5544 2.33211 58.0323 2.33211 57.3883V52.7241Z" fill="#212121"/>
</g>
<defs>
<clipPath id="clip0">
<rect width="70" height="70" fill="white"/>
</clipPath>
</defs>
</svg>
